<svg width="128" height="128" viewBox="0 0 1024 1024" xmlns="http://www.w3.org/2000/svg">
<path d="M694.62528 555.1872c110.23872-7.71584 197.59616-99.95264 197.59616-212.31104 0-19.47648-2.80064-39.1424-8.28928-58.45504a23.6032 23.6032 0 0 0-39.40864-10.25024l-40.79616 40.87296c-25.69728 25.76896-70.50752 25.78432-96.2304-0.01536-26.53184-26.56256-26.53184-69.82144 0-96.42496l40.76544-40.83712a23.6032 23.6032 0 0 0 6.14912-22.656 23.5776 23.5776 0 0 0-16.34304-16.81408c-19.31776-5.48864-38.94784-8.29952-58.37824-8.29952-117.20704 0-212.54656 95.51872-212.54656 212.8896 0 11.17696 0.9984 22.59968 2.8928 34.0992l-27.9552 25.6256-134.95808-135.19872c12.52352-26.36288 7.9872-58.89536-13.7728-80.68096l-49.7152-49.81248a23.58272 23.58272 0 0 0-33.39264 0L143.45216 203.82208a23.66464 23.66464 0 0 0 0 33.44384l49.7152 49.80736a70.33856 70.33856 0 0 0 50.08896 20.7872c10.73152 0 21.07904-2.45248 30.49472-6.96832l133.45792 133.67296-229.1712 210.05824c-26.76736 26.82368-41.51296 62.44864-41.51296 100.36736 0 37.90848 14.7456 73.55392 41.51296 100.3264 26.77248 26.83904 62.3616 41.5744 100.18304 41.5744 37.83168 0 73.4208-14.76096 100.8896-42.32192l161.17248-176.39424 190.67904 191.01696a93.7728 93.7728 0 0 0 66.7904 27.70432c25.26208 0 48.95232-9.8304 66.77504-27.70432a93.89056 93.89056 0 0 0 27.69408-66.87744c0-25.2928-9.8304-49.05472-27.68384-66.91328l-169.91232-170.2144z m-434.66752-301.568c-8.94976 8.93952-24.44288 8.93952-33.39264 0l-33.02912-33.0752 33.39264-33.44896 33.02912 33.07008a23.71584 23.71584 0 0 1 0 33.45408z m85.04832 558.2336c-35.67616 35.7376-97.85344 35.78368-133.57568-0.01024a93.94176 93.94176 0 0 1-27.66848-66.86208c0-25.2672 9.82528-49.03424 26.91584-66.19136l301.0048-275.86048c0.22528-0.20992 0.37888-0.4608 0.59904-0.67584 0.58368-0.57856 1.11104-1.19296 1.62816-1.82784 0.4864-0.58368 0.96768-1.17248 1.39264-1.792 0.40448-0.62976 0.76288-1.27488 1.11104-1.93536 0.37888-0.6912 0.75264-1.36704 1.0496-2.08384 0.30208-0.70144 0.52736-1.41824 0.74752-2.14016 0.21504-0.72192 0.44032-1.42336 0.5888-2.15552 0.15872-0.768 0.24576-1.54624 0.32768-2.33984 0.08704-0.73728 0.1536-1.46944 0.16384-2.21184 0.01024-0.75264-0.05632-1.50528-0.10752-2.26304a30.0288 30.0288 0 0 0-0.31232-2.44224c-0.06144-0.29696-0.04608-0.5888-0.11776-0.88576-2.90816-12.67712-4.38272-25.22624-4.38272-37.30432 0-92.01664 75.85792-166.00064 167.54688-165.56032l-7.83872 7.85408c-44.9024 45.0304-44.9024 118.28736 0 163.28704 21.80096 21.84192 50.72896 33.87392 81.54112 33.87392 30.82752 0 59.77088-12.032 81.53088-33.85344l7.81824-7.82848c0.0256 0.7424 0.0256 1.4848 0.0256 2.23232 0 91.30496-74.15296 165.57056-165.2992 165.57056a163.6864 163.6864 0 0 1-37.1712-4.37248c-0.31744-0.0768-0.62464-0.05632-0.94208-0.11264-0.8192-0.1536-1.6384-0.24576-2.4832-0.31744-0.70144-0.0512-1.39264-0.10752-2.08896-0.10752a23.45472 23.45472 0 0 0-2.5344 0.19456c-0.65024 0.0768-1.31584 0.13824-1.95584 0.27136a21.85216 21.85216 0 0 0-2.54976 0.70656c-0.59392 0.19456-1.19296 0.36864-1.7664 0.60928-0.81408 0.3328-1.5872 0.74752-2.36032 1.1776-0.57856 0.32256-1.15712 0.63488-1.71008 0.9984-0.65536 0.44032-1.28 0.93696-1.8944 1.44384-0.62464 0.512-1.21344 1.024-1.78688 1.60256-0.22016 0.21504-0.47616 0.37888-0.6912 0.60928l-274.75456 300.70272z m486.13888 13.8752c-17.85344 17.87392-48.9472 17.87392-66.7904 0l-183.42912-183.74656 66.78528-66.88256 183.43424 183.73632a47.06304 47.06304 0 0 1 13.82912 33.47456 46.9248 46.9248 0 0 1-13.82912 33.41824zM278.22592 697.66144c-26.08128 0-47.23712 21.21216-47.23712 47.31392 0 26.1376 21.1456 47.31392 47.23712 47.31392 26.10176 0 47.22688-21.17632 47.22688-47.31392 0-26.10688-21.13024-47.31392-47.22688-47.31392z"></path>
</svg>
